<svg width="40" height="40" viewBox="0 0 40 40" fill="none" xmlns="http://www.w3.org/2000/svg">
<g clip-path="url(#clip0_123_22)">
<path d="M40 0H0V40H40V0Z" fill="white"/>
<path d="M11.1086 19.7574C11.1086 16.7926 11.8605 14.4379 13.3645 12.6934C14.8684 10.9488 17.0383 10.0766 19.8742 10.0766C21.507 10.0766 22.8906 10.3301 24.025 10.8371C25.1594 11.3441 25.9586 12.0789 26.4227 13.0414C26.732 13.6773 26.6805 14.107 26.268 14.3305L24.7211 15.1555C24.1797 15.4477 23.7328 15.2844 23.3805 14.6656C23.157 14.2703 22.7402 13.9137 22.1301 13.5957C21.5285 13.2777 20.8195 13.1187 20.0031 13.1187C18.1984 13.1187 16.9352 13.6902 16.2133 14.8332C15.4914 15.9676 15.1305 17.609 15.1305 19.7574C15.1305 21.9059 15.4914 23.5516 16.2133 24.6945C16.9352 25.8289 18.1984 26.3961 20.0031 26.3961C20.9742 26.3961 21.7906 26.177 22.4523 25.7387C23.1227 25.3004 23.5867 24.8836 23.8445 24.4883C24.2656 23.8437 24.7125 23.6805 25.1852 23.9984L26.732 25.0297C27.1531 25.3133 27.1961 25.743 26.8609 26.3187C26.3625 27.1781 25.5074 27.9129 24.2957 28.523C23.084 29.1332 21.6102 29.4383 19.8742 29.4383C17.0813 29.4383 14.9199 28.566 13.3902 26.8215C11.8691 25.077 11.1086 22.7223 11.1086 19.7574Z" fill="black"/>
</g>
<defs>
<clipPath id="clip0_123_22">
<rect width="40" height="40" fill="white"/>
</clipPath>
</defs>
</svg>
