<svg width="119" height="32" viewBox="0 0 119 32" fill="none" xmlns="http://www.w3.org/2000/svg">
<g clip-path="url(#clip0_123_2)">
<path d="M1.10859 16.7574C1.10859 13.7926 1.86055 11.4379 3.36445 9.69336C4.86836 7.94883 7.03828 7.07656 9.87422 7.07656C11.507 7.07656 12.8906 7.33008 14.025 7.83711C15.1594 8.34414 15.9586 9.07891 16.4227 10.0414C16.732 10.6773 16.6805 11.107 16.268 11.3305L14.7211 12.1555C14.1797 12.4477 13.7328 12.2844 13.3805 11.6656C13.157 11.2703 12.7402 10.9137 12.1301 10.5957C11.5285 10.2777 10.8195 10.1187 10.0031 10.1187C8.19844 10.1187 6.93516 10.6902 6.21328 11.8332C5.49141 12.9676 5.13047 14.609 5.13047 16.7574C5.13047 18.9059 5.49141 20.5516 6.21328 21.6945C6.93516 22.8289 8.19844 23.3961 10.0031 23.3961C10.9742 23.3961 11.7906 23.177 12.4523 22.7387C13.1227 22.3004 13.5867 21.8836 13.8445 21.4883C14.2656 20.8437 14.7125 20.6805 15.1852 20.9984L16.732 22.0297C17.1531 22.3133 17.1961 22.743 16.8609 23.3187C16.3625 24.1781 15.5074 24.9129 14.2957 25.523C13.084 26.1332 11.6102 26.4383 9.87422 26.4383C7.08125 26.4383 4.91992 25.566 3.39023 23.8215C1.86914 22.077 1.10859 19.7223 1.10859 16.7574ZM20.8055 26C20.2898 26 20.032 25.7422 20.032 25.2266V10.0027C20.032 9.61601 20.1223 9.26367 20.3027 8.9457L21.2953 7.20547C21.4844 6.87891 21.7078 6.71562 21.9656 6.71562H22.868C23.3836 6.71562 23.6414 6.97344 23.6414 7.48906V25.2266C23.6414 25.7422 23.3836 26 22.868 26H20.8055ZM26.4258 22.3906C26.4258 20.6719 27.2465 19.4258 28.8879 18.6523C30.5293 17.8789 32.4027 17.4664 34.5082 17.4148V16.8992C34.5082 16.1086 34.3105 15.55 33.9152 15.2234C33.5199 14.8969 32.9699 14.7336 32.2652 14.7336C31.7668 14.7336 31.3242 14.8066 30.9375 14.9527C30.5594 15.0902 30.2285 15.2535 29.9449 15.4426C29.6699 15.623 29.4207 15.8078 29.1973 15.9969C28.802 16.3406 28.4754 16.3578 28.2176 16.0484L27.1477 14.7336C26.8813 14.407 26.9457 14.0719 27.341 13.7281C27.6418 13.4617 27.9898 13.2297 28.3852 13.032C28.7891 12.8344 29.3219 12.6496 29.9836 12.4777C30.6453 12.2973 31.5047 12.207 32.5617 12.207C34.3492 12.207 35.7199 12.6195 36.6738 13.4445C37.6363 14.2695 38.1176 15.4855 38.1176 17.0926V25.2266C38.1176 25.7422 37.8598 26 37.3441 26H35.2301C34.766 26 34.534 25.7422 34.534 25.2266V24.8398H34.5082C34.0012 25.3297 33.391 25.6906 32.6777 25.9227C31.973 26.1461 31.3242 26.2578 30.7313 26.2578C29.3219 26.2578 28.252 25.9141 27.5215 25.2266C26.791 24.5305 26.4258 23.5852 26.4258 22.3906ZM30.2414 22.3133C30.2414 22.6141 30.3016 22.8762 30.4219 23.0996C30.5422 23.3145 30.7313 23.4734 30.9891 23.5766C31.2469 23.6797 31.5348 23.7312 31.8527 23.7312C32.291 23.7312 32.7164 23.6711 33.1289 23.5508C33.5414 23.4305 34.0012 23.1469 34.5082 22.7V19.9027C33.0645 20.066 32.0977 20.2766 31.6078 20.5344C31.118 20.7922 30.7656 21.0586 30.5508 21.3336C30.3445 21.6086 30.2414 21.9352 30.2414 22.3133ZM41.366 25.0977C40.9449 24.7969 40.8289 24.4746 41.018 24.1309L41.6754 22.932C41.9074 22.5023 42.2684 22.4508 42.7582 22.7773C43.2481 23.1039 43.8238 23.3445 44.4856 23.4992C45.1559 23.6539 45.766 23.7312 46.316 23.7312C46.7027 23.7312 47.0637 23.6926 47.3988 23.6152C47.734 23.5379 48.0176 23.3875 48.2496 23.1641C48.4816 22.9406 48.5977 22.6141 48.5977 22.1844C48.5977 21.9266 48.5289 21.7074 48.3914 21.527C48.2539 21.3465 48.0777 21.209 47.8629 21.1145C47.6481 21.0199 47.4203 20.9426 47.1797 20.8824C46.8617 20.8051 46.402 20.6762 45.8004 20.4957C45.2074 20.3152 44.6359 20.1047 44.0859 19.8641C43.6305 19.6664 43.1836 19.3914 42.7453 19.0391C42.3156 18.6781 41.9977 18.2785 41.7914 17.8402C41.5938 17.402 41.4949 16.8605 41.4949 16.216C41.4949 15.348 41.7441 14.5875 42.2426 13.9344C42.7496 13.2812 43.4027 12.8301 44.202 12.5809C45.0012 12.3316 45.9981 12.207 47.1926 12.207C48.0004 12.207 48.7867 12.323 49.5516 12.5551C50.3164 12.7871 50.8621 13.0062 51.1887 13.2125C51.7043 13.5391 51.8332 13.8871 51.5754 14.2566L50.7891 15.4039C50.5484 15.7477 50.1617 15.7734 49.6289 15.4812C49.225 15.2578 48.8254 15.0773 48.4301 14.9398C48.0434 14.8023 47.6094 14.7336 47.1281 14.7336C46.8016 14.7336 46.4879 14.768 46.1871 14.8367C45.8863 14.9055 45.6285 15.0344 45.4137 15.2234C45.2074 15.4125 45.1043 15.6617 45.1043 15.9711C45.1043 16.2977 45.1988 16.5555 45.3879 16.7445C45.5856 16.925 45.809 17.0582 46.0582 17.1441C46.316 17.2301 46.5609 17.3117 46.793 17.3891C47.2742 17.5437 47.7598 17.6941 48.2496 17.8402C48.7395 17.9777 49.2379 18.1453 49.7449 18.343C50.1832 18.5148 50.6086 18.7598 51.0211 19.0777C51.4336 19.3957 51.7344 19.7996 51.9234 20.2895C52.1125 20.7793 52.207 21.3379 52.207 21.9652C52.207 22.7988 51.9578 23.5723 51.4594 24.2855C50.9609 24.9988 50.3035 25.5059 49.4871 25.8066C48.6707 26.1074 47.7211 26.2578 46.6383 26.2578C45.4266 26.2578 44.3953 26.1719 43.5445 26C42.6938 25.8281 41.9676 25.5273 41.366 25.0977ZM54.334 25.0977C53.9129 24.7969 53.7969 24.4746 53.9859 24.1309L54.6434 22.932C54.8754 22.5023 55.2363 22.4508 55.7262 22.7773C56.216 23.1039 56.7918 23.3445 57.4535 23.4992C58.1238 23.6539 58.734 23.7312 59.284 23.7312C59.6707 23.7312 60.0316 23.6926 60.3668 23.6152C60.702 23.5379 60.9856 23.3875 61.2176 23.1641C61.4496 22.9406 61.5656 22.6141 61.5656 22.1844C61.5656 21.9266 61.4969 21.7074 61.3594 21.527C61.2219 21.3465 61.0457 21.209 60.8309 21.1145C60.616 21.0199 60.3883 20.9426 60.1477 20.8824C59.8297 20.8051 59.3699 20.6762 58.7684 20.4957C58.1754 20.3152 57.6039 20.1047 57.0539 19.8641C56.5984 19.6664 56.1516 19.3914 55.7133 19.0391C55.2836 18.6781 54.9656 18.2785 54.7594 17.8402C54.5617 17.402 54.4629 16.8605 54.4629 16.216C54.4629 15.348 54.7121 14.5875 55.2106 13.9344C55.7176 13.2812 56.3707 12.8301 57.1699 12.5809C57.9691 12.3316 58.966 12.207 60.1606 12.207C60.9684 12.207 61.7547 12.323 62.5195 12.5551C63.2844 12.7871 63.8301 13.0062 64.1566 13.2125C64.6723 13.5391 64.8012 13.8871 64.5434 14.2566L63.757 15.4039C63.5164 15.7477 63.1297 15.7734 62.5969 15.4812C62.193 15.2578 61.7934 15.0773 61.3981 14.9398C61.0113 14.8023 60.5773 14.7336 60.0961 14.7336C59.7695 14.7336 59.4559 14.768 59.1551 14.8367C58.8543 14.9055 58.5965 15.0344 58.3816 15.2234C58.1754 15.4125 58.0723 15.6617 58.0723 15.9711C58.0723 16.2977 58.1668 16.5555 58.3559 16.7445C58.5535 16.925 58.777 17.0582 59.0262 17.1441C59.284 17.2301 59.5289 17.3117 59.7609 17.3891C60.2422 17.5437 60.7277 17.6941 61.2176 17.8402C61.7074 17.9777 62.2059 18.1453 62.7129 18.343C63.1512 18.5148 63.5766 18.7598 63.9891 19.0777C64.4016 19.3957 64.7023 19.7996 64.8914 20.2895C65.0805 20.7793 65.175 21.3379 65.175 21.9652C65.175 22.7988 64.9258 23.5723 64.4273 24.2855C63.9289 24.9988 63.2715 25.5059 62.4551 25.8066C61.6387 26.1074 60.6891 26.2578 59.6063 26.2578C58.3945 26.2578 57.3633 26.1719 56.5125 26C55.6617 25.8281 54.9356 25.5273 54.334 25.0977ZM68.3461 26C67.8305 26 67.5727 25.7422 67.5727 25.2266V13.2383C67.5727 12.7227 67.8305 12.4648 68.3461 12.4648H70.4086C70.9242 12.4648 71.182 12.7227 71.182 13.2383V25.2266C71.182 25.7422 70.9242 26 70.4086 26H68.3461ZM68.3461 10.4797C67.8305 10.4797 67.5727 10.2219 67.5727 9.70625V8.05625C67.5727 7.54062 67.8305 7.28281 68.3461 7.28281H70.4086C70.9242 7.28281 71.182 7.54062 71.182 8.05625V9.70625C71.182 10.2219 70.9242 10.4797 70.4086 10.4797H68.3461ZM74.2371 15.043C73.7301 15.043 73.4766 14.8281 73.4766 14.3984V13.1094C73.4766 12.6797 73.7301 12.4648 74.2371 12.4648H74.959V11.4852C74.959 9.68906 75.5219 8.44726 76.6477 7.75976C77.782 7.06367 79.2817 6.71562 81.1465 6.71562C82.066 6.71562 82.8695 6.78867 83.557 6.93476C84.2445 7.08086 84.8375 7.3 85.3359 7.59219C85.6109 7.75547 85.6625 7.9918 85.4906 8.30117L84.6914 9.75781C84.5625 9.98984 84.3477 10.0199 84.0469 9.84805C83.8063 9.71055 83.4582 9.57734 83.0027 9.44844C82.5559 9.31094 81.9758 9.24219 81.2625 9.24219C80.3 9.24219 79.6082 9.46562 79.1871 9.9125C78.7746 10.3508 78.5684 11.0469 78.5684 12.0008V12.4648H86.0578C86.5734 12.4648 86.8313 12.7227 86.8313 13.2383V25.2266C86.8313 25.7422 86.5734 26 86.0578 26H83.9953C83.4797 26 83.2219 25.7422 83.2219 25.2266V15.043H78.5684V25.2266C78.5684 25.7422 78.3106 26 77.7949 26H75.7324C75.2168 26 74.959 25.7422 74.959 25.2266V15.043H74.2371ZM89.6156 19.2324C89.6156 17.0582 90.157 15.3437 91.2399 14.0891C92.3313 12.8344 93.8695 12.207 95.8547 12.207C98.1578 12.207 99.868 12.8 100.985 13.9859C102.102 15.1719 102.661 17.0797 102.661 19.7094C102.661 20.225 102.42 20.4828 101.939 20.4828H93.4313C93.5688 21.9094 93.9211 22.8074 94.4883 23.177C95.0555 23.5465 95.7129 23.7312 96.4606 23.7312C97.1738 23.7312 97.7195 23.6367 98.0977 23.4477C98.4758 23.2586 98.7938 23.0008 99.0516 22.6742C99.3438 22.2961 99.7047 22.2359 100.134 22.4937L101.423 23.2801C101.93 23.5895 102.004 23.959 101.643 24.3887C101.118 25.016 100.504 25.4844 99.7992 25.7937C99.0945 26.1031 97.9816 26.2578 96.4606 26.2578C93.9941 26.2578 92.2367 25.6305 91.1883 24.3758C90.1398 23.1211 89.6156 21.4066 89.6156 19.2324ZM93.4441 17.9047H99.0516C99.0516 16.9766 98.8195 16.2203 98.3555 15.6359C97.8914 15.043 97.1524 14.7465 96.1383 14.7465C95.3305 14.7465 94.6902 15.0301 94.2176 15.5973C93.7449 16.1559 93.4871 16.925 93.4441 17.9047ZM104.749 19.2324C104.749 17.3418 105.157 15.7004 105.974 14.3082C106.799 12.9074 108.221 12.207 110.241 12.207C111.014 12.207 111.676 12.3187 112.226 12.5422C112.776 12.7656 113.274 13.2469 113.721 13.9859H113.773C113.738 13.6422 113.721 13.2984 113.721 12.9547V7.74687C113.721 7.23125 113.979 6.97344 114.495 6.97344H116.557C117.073 6.97344 117.33 7.23125 117.33 7.74687V25.2266C117.33 25.7422 117.073 26 116.557 26H114.52C114.091 26 113.859 25.7422 113.824 25.2266L113.773 24.4789H113.721C113.274 25.218 112.776 25.6992 112.226 25.9227C111.676 26.1461 111.014 26.2578 110.241 26.2578C108.221 26.2578 106.799 25.5617 105.974 24.1695C105.157 22.7687 104.749 21.123 104.749 19.2324ZM108.565 19.2324C108.565 20.6074 108.741 21.7031 109.093 22.5195C109.454 23.3273 110.215 23.7312 111.375 23.7312C112.02 23.7312 112.57 23.3703 113.025 22.6484C113.489 21.918 113.721 20.9727 113.721 19.8125V18.6523C113.721 17.4922 113.489 16.5512 113.025 15.8293C112.57 15.0988 112.02 14.7336 111.375 14.7336C110.215 14.7336 109.454 15.1418 109.093 15.9582C108.741 16.766 108.565 17.8574 108.565 19.2324Z" fill="white"/>
</g>
<defs>
<clipPath id="clip0_123_2">
<rect width="119" height="32" fill="white"/>
</clipPath>
</defs>
</svg>
