<svg width="119" height="32" viewBox="0 0 119 32" fill="none" xmlns="http://www.w3.org/2000/svg">
<g clip-path="url(#clip0_123_12)">
<path d="M1.10859 15.7574C1.10859 12.7926 1.86055 10.4379 3.36445 8.69336C4.86836 6.94883 7.03828 6.07656 9.87422 6.07656C11.507 6.07656 12.8906 6.33008 14.025 6.83711C15.1594 7.34414 15.9586 8.07891 16.4227 9.04141C16.732 9.67734 16.6805 10.107 16.268 10.3305L14.7211 11.1555C14.1797 11.4477 13.7328 11.2844 13.3805 10.6656C13.157 10.2703 12.7402 9.91367 12.1301 9.5957C11.5285 9.27773 10.8195 9.11875 10.0031 9.11875C8.19844 9.11875 6.93516 9.69023 6.21328 10.8332C5.49141 11.9676 5.13047 13.609 5.13047 15.7574C5.13047 17.9059 5.49141 19.5516 6.21328 20.6945C6.93516 21.8289 8.19844 22.3961 10.0031 22.3961C10.9742 22.3961 11.7906 22.177 12.4523 21.7387C13.1227 21.3004 13.5867 20.8836 13.8445 20.4883C14.2656 19.8437 14.7125 19.6805 15.1852 19.9984L16.732 21.0297C17.1531 21.3133 17.1961 21.743 16.8609 22.3187C16.3625 23.1781 15.5074 23.9129 14.2957 24.523C13.084 25.1332 11.6102 25.4383 9.87422 25.4383C7.08125 25.4383 4.91992 24.566 3.39023 22.8215C1.86914 21.077 1.10859 18.7223 1.10859 15.7574ZM20.8055 25C20.2898 25 20.032 24.7422 20.032 24.2266V9.00273C20.032 8.61601 20.1223 8.26367 20.3027 7.9457L21.2953 6.20547C21.4844 5.87891 21.7078 5.71562 21.9656 5.71562H22.868C23.3836 5.71562 23.6414 5.97344 23.6414 6.48906V24.2266C23.6414 24.7422 23.3836 25 22.868 25H20.8055ZM26.4258 21.3906C26.4258 19.6719 27.2465 18.4258 28.8879 17.6523C30.5293 16.8789 32.4027 16.4664 34.5082 16.4148V15.8992C34.5082 15.1086 34.3105 14.55 33.9152 14.2234C33.5199 13.8969 32.9699 13.7336 32.2652 13.7336C31.7668 13.7336 31.3242 13.8066 30.9375 13.9527C30.5594 14.0902 30.2285 14.2535 29.9449 14.4426C29.6699 14.623 29.4207 14.8078 29.1973 14.9969C28.802 15.3406 28.4754 15.3578 28.2176 15.0484L27.1477 13.7336C26.8813 13.407 26.9457 13.0719 27.341 12.7281C27.6418 12.4617 27.9898 12.2297 28.3852 12.032C28.7891 11.8344 29.3219 11.6496 29.9836 11.4777C30.6453 11.2973 31.5047 11.207 32.5617 11.207C34.3492 11.207 35.7199 11.6195 36.6738 12.4445C37.6363 13.2695 38.1176 14.4855 38.1176 16.0926V24.2266C38.1176 24.7422 37.8598 25 37.3441 25H35.2301C34.766 25 34.534 24.7422 34.534 24.2266V23.8398H34.5082C34.0012 24.3297 33.391 24.6906 32.6777 24.9227C31.973 25.1461 31.3242 25.2578 30.7313 25.2578C29.3219 25.2578 28.252 24.9141 27.5215 24.2266C26.791 23.5305 26.4258 22.5852 26.4258 21.3906ZM30.2414 21.3133C30.2414 21.6141 30.3016 21.8762 30.4219 22.0996C30.5422 22.3145 30.7313 22.4734 30.9891 22.5766C31.2469 22.6797 31.5348 22.7312 31.8527 22.7312C32.291 22.7312 32.7164 22.6711 33.1289 22.5508C33.5414 22.4305 34.0012 22.1469 34.5082 21.7V18.9027C33.0645 19.066 32.0977 19.2766 31.6078 19.5344C31.118 19.7922 30.7656 20.0586 30.5508 20.3336C30.3445 20.6086 30.2414 20.9352 30.2414 21.3133ZM41.366 24.0977C40.9449 23.7969 40.8289 23.4746 41.018 23.1309L41.6754 21.932C41.9074 21.5023 42.2684 21.4508 42.7582 21.7773C43.2481 22.1039 43.8238 22.3445 44.4856 22.4992C45.1559 22.6539 45.766 22.7312 46.316 22.7312C46.7027 22.7312 47.0637 22.6926 47.3988 22.6152C47.734 22.5379 48.0176 22.3875 48.2496 22.1641C48.4816 21.9406 48.5977 21.6141 48.5977 21.1844C48.5977 20.9266 48.5289 20.7074 48.3914 20.527C48.2539 20.3465 48.0777 20.209 47.8629 20.1145C47.6481 20.0199 47.4203 19.9426 47.1797 19.8824C46.8617 19.8051 46.402 19.6762 45.8004 19.4957C45.2074 19.3152 44.6359 19.1047 44.0859 18.8641C43.6305 18.6664 43.1836 18.3914 42.7453 18.0391C42.3156 17.6781 41.9977 17.2785 41.7914 16.8402C41.5938 16.402 41.4949 15.8605 41.4949 15.216C41.4949 14.348 41.7441 13.5875 42.2426 12.9344C42.7496 12.2812 43.4027 11.8301 44.202 11.5809C45.0012 11.3316 45.9981 11.207 47.1926 11.207C48.0004 11.207 48.7867 11.323 49.5516 11.5551C50.3164 11.7871 50.8621 12.0062 51.1887 12.2125C51.7043 12.5391 51.8332 12.8871 51.5754 13.2566L50.7891 14.4039C50.5484 14.7477 50.1617 14.7734 49.6289 14.4812C49.225 14.2578 48.8254 14.0773 48.4301 13.9398C48.0434 13.8023 47.6094 13.7336 47.1281 13.7336C46.8016 13.7336 46.4879 13.768 46.1871 13.8367C45.8863 13.9055 45.6285 14.0344 45.4137 14.2234C45.2074 14.4125 45.1043 14.6617 45.1043 14.9711C45.1043 15.2977 45.1988 15.5555 45.3879 15.7445C45.5856 15.925 45.809 16.0582 46.0582 16.1441C46.316 16.2301 46.5609 16.3117 46.793 16.3891C47.2742 16.5437 47.7598 16.6941 48.2496 16.8402C48.7395 16.9777 49.2379 17.1453 49.7449 17.343C50.1832 17.5148 50.6086 17.7598 51.0211 18.0777C51.4336 18.3957 51.7344 18.7996 51.9234 19.2895C52.1125 19.7793 52.207 20.3379 52.207 20.9652C52.207 21.7988 51.9578 22.5723 51.4594 23.2855C50.9609 23.9988 50.3035 24.5059 49.4871 24.8066C48.6707 25.1074 47.7211 25.2578 46.6383 25.2578C45.4266 25.2578 44.3953 25.1719 43.5445 25C42.6938 24.8281 41.9676 24.5273 41.366 24.0977ZM54.334 24.0977C53.9129 23.7969 53.7969 23.4746 53.9859 23.1309L54.6434 21.932C54.8754 21.5023 55.2363 21.4508 55.7262 21.7773C56.216 22.1039 56.7918 22.3445 57.4535 22.4992C58.1238 22.6539 58.734 22.7312 59.284 22.7312C59.6707 22.7312 60.0316 22.6926 60.3668 22.6152C60.702 22.5379 60.9856 22.3875 61.2176 22.1641C61.4496 21.9406 61.5656 21.6141 61.5656 21.1844C61.5656 20.9266 61.4969 20.7074 61.3594 20.527C61.2219 20.3465 61.0457 20.209 60.8309 20.1145C60.616 20.0199 60.3883 19.9426 60.1477 19.8824C59.8297 19.8051 59.3699 19.6762 58.7684 19.4957C58.1754 19.3152 57.6039 19.1047 57.0539 18.8641C56.5984 18.6664 56.1516 18.3914 55.7133 18.0391C55.2836 17.6781 54.9656 17.2785 54.7594 16.8402C54.5617 16.402 54.4629 15.8605 54.4629 15.216C54.4629 14.348 54.7121 13.5875 55.2106 12.9344C55.7176 12.2812 56.3707 11.8301 57.1699 11.5809C57.9691 11.3316 58.966 11.207 60.1606 11.207C60.9684 11.207 61.7547 11.323 62.5195 11.5551C63.2844 11.7871 63.8301 12.0062 64.1566 12.2125C64.6723 12.5391 64.8012 12.8871 64.5434 13.2566L63.757 14.4039C63.5164 14.7477 63.1297 14.7734 62.5969 14.4812C62.193 14.2578 61.7934 14.0773 61.3981 13.9398C61.0113 13.8023 60.5773 13.7336 60.0961 13.7336C59.7695 13.7336 59.4559 13.768 59.1551 13.8367C58.8543 13.9055 58.5965 14.0344 58.3816 14.2234C58.1754 14.4125 58.0723 14.6617 58.0723 14.9711C58.0723 15.2977 58.1668 15.5555 58.3559 15.7445C58.5535 15.925 58.777 16.0582 59.0262 16.1441C59.284 16.2301 59.5289 16.3117 59.7609 16.3891C60.2422 16.5437 60.7277 16.6941 61.2176 16.8402C61.7074 16.9777 62.2059 17.1453 62.7129 17.343C63.1512 17.5148 63.5766 17.7598 63.9891 18.0777C64.4016 18.3957 64.7023 18.7996 64.8914 19.2895C65.0805 19.7793 65.175 20.3379 65.175 20.9652C65.175 21.7988 64.9258 22.5723 64.4273 23.2855C63.9289 23.9988 63.2715 24.5059 62.4551 24.8066C61.6387 25.1074 60.6891 25.2578 59.6063 25.2578C58.3945 25.2578 57.3633 25.1719 56.5125 25C55.6617 24.8281 54.9356 24.5273 54.334 24.0977ZM68.3461 25C67.8305 25 67.5727 24.7422 67.5727 24.2266V12.2383C67.5727 11.7227 67.8305 11.4648 68.3461 11.4648H70.4086C70.9242 11.4648 71.182 11.7227 71.182 12.2383V24.2266C71.182 24.7422 70.9242 25 70.4086 25H68.3461ZM68.3461 9.47969C67.8305 9.47969 67.5727 9.22187 67.5727 8.70625V7.05625C67.5727 6.54062 67.8305 6.28281 68.3461 6.28281H70.4086C70.9242 6.28281 71.182 6.54062 71.182 7.05625V8.70625C71.182 9.22187 70.9242 9.47969 70.4086 9.47969H68.3461ZM74.2371 14.043C73.7301 14.043 73.4766 13.8281 73.4766 13.3984V12.1094C73.4766 11.6797 73.7301 11.4648 74.2371 11.4648H74.959V10.4852C74.959 8.68906 75.5219 7.44726 76.6477 6.75976C77.782 6.06367 79.2817 5.71562 81.1465 5.71562C82.066 5.71562 82.8695 5.78867 83.557 5.93476C84.2445 6.08086 84.8375 6.3 85.3359 6.59219C85.6109 6.75547 85.6625 6.9918 85.4906 7.30117L84.6914 8.75781C84.5625 8.98984 84.3477 9.01992 84.0469 8.84805C83.8063 8.71055 83.4582 8.57734 83.0027 8.44844C82.5559 8.31094 81.9758 8.24219 81.2625 8.24219C80.3 8.24219 79.6082 8.46562 79.1871 8.9125C78.7746 9.35078 78.5684 10.0469 78.5684 11.0008V11.4648H86.0578C86.5734 11.4648 86.8313 11.7227 86.8313 12.2383V24.2266C86.8313 24.7422 86.5734 25 86.0578 25H83.9953C83.4797 25 83.2219 24.7422 83.2219 24.2266V14.043H78.5684V24.2266C78.5684 24.7422 78.3106 25 77.7949 25H75.7324C75.2168 25 74.959 24.7422 74.959 24.2266V14.043H74.2371ZM89.6156 18.2324C89.6156 16.0582 90.157 14.3437 91.2399 13.0891C92.3313 11.8344 93.8695 11.207 95.8547 11.207C98.1578 11.207 99.868 11.8 100.985 12.9859C102.102 14.1719 102.661 16.0797 102.661 18.7094C102.661 19.225 102.42 19.4828 101.939 19.4828H93.4313C93.5688 20.9094 93.9211 21.8074 94.4883 22.177C95.0555 22.5465 95.7129 22.7312 96.4606 22.7312C97.1738 22.7312 97.7195 22.6367 98.0977 22.4477C98.4758 22.2586 98.7938 22.0008 99.0516 21.6742C99.3438 21.2961 99.7047 21.2359 100.134 21.4937L101.423 22.2801C101.93 22.5895 102.004 22.959 101.643 23.3887C101.118 24.016 100.504 24.4844 99.7992 24.7937C99.0945 25.1031 97.9816 25.2578 96.4606 25.2578C93.9941 25.2578 92.2367 24.6305 91.1883 23.3758C90.1398 22.1211 89.6156 20.4066 89.6156 18.2324ZM93.4441 16.9047H99.0516C99.0516 15.9766 98.8195 15.2203 98.3555 14.6359C97.8914 14.043 97.1524 13.7465 96.1383 13.7465C95.3305 13.7465 94.6902 14.0301 94.2176 14.5973C93.7449 15.1559 93.4871 15.925 93.4441 16.9047ZM104.749 18.2324C104.749 16.3418 105.157 14.7004 105.974 13.3082C106.799 11.9074 108.221 11.207 110.241 11.207C111.014 11.207 111.676 11.3187 112.226 11.5422C112.776 11.7656 113.274 12.2469 113.721 12.9859H113.773C113.738 12.6422 113.721 12.2984 113.721 11.9547V6.74687C113.721 6.23125 113.979 5.97344 114.495 5.97344H116.557C117.073 5.97344 117.33 6.23125 117.33 6.74687V24.2266C117.33 24.7422 117.073 25 116.557 25H114.52C114.091 25 113.859 24.7422 113.824 24.2266L113.773 23.4789H113.721C113.274 24.218 112.776 24.6992 112.226 24.9227C111.676 25.1461 111.014 25.2578 110.241 25.2578C108.221 25.2578 106.799 24.5617 105.974 23.1695C105.157 21.7687 104.749 20.123 104.749 18.2324ZM108.565 18.2324C108.565 19.6074 108.741 20.7031 109.093 21.5195C109.454 22.3273 110.215 22.7312 111.375 22.7312C112.02 22.7312 112.57 22.3703 113.025 21.6484C113.489 20.918 113.721 19.9727 113.721 18.8125V17.6523C113.721 16.4922 113.489 15.5512 113.025 14.8293C112.57 14.0988 112.02 13.7336 111.375 13.7336C110.215 13.7336 109.454 14.1418 109.093 14.9582C108.741 15.766 108.565 16.8574 108.565 18.2324Z" fill="black"/>
</g>
<defs>
<clipPath id="clip0_123_12">
<rect width="119" height="32" fill="white"/>
</clipPath>
</defs>
</svg>
